<svg width="32" height="32" viewBox="0 0 32 32" fill="none" xmlns="http://www.w3.org/2000/svg">
<g clip-path="url(#clip0)">
<path d="M2.82015 7.26829C4.37767 7.26829 5.6403 6.00565 5.6403 4.44811C5.6403 2.89057 4.37767 1.62793 2.82015 1.62793C1.26262 1.62793 0 2.89057 0 4.44811C0 6.00565 1.26262 7.26829 2.82015 7.26829Z" fill="#3898DE"/>
<path d="M31.9998 2.24097H8.94922V6.6547H31.9998V2.24097Z" fill="#3898DE"/>
<path d="M2.82015 18.9289C4.37767 18.9289 5.6403 17.6663 5.6403 16.1088C5.6403 14.5512 4.37767 13.2886 2.82015 13.2886C1.26262 13.2886 0 14.5512 0 16.1088C0 17.6663 1.26262 18.9289 2.82015 18.9289Z" fill="#3898DE"/>
<path d="M31.9998 13.9016H8.94922V18.3153H31.9998V13.9016Z" fill="#3898DE"/>
<path d="M2.81981 30.3726C4.37715 30.3726 5.63962 29.1101 5.63962 27.5528C5.63962 25.9954 4.37715 24.7329 2.81981 24.7329C1.26247 24.7329 0 25.9954 0 27.5528C0 29.1101 1.26247 30.3726 2.81981 30.3726Z" fill="#3898DE"/>
<path d="M31.9998 25.3457H8.94922V29.7598H31.9998V25.3457Z" fill="#3898DE"/>
</g>
<defs>
<clipPath id="clip0">
<rect width="32" height="32" fill="white"/>
</clipPath>
</defs>
</svg>
