<svg width="224" height="39" viewBox="0 0 224 39" fill="none" xmlns="http://www.w3.org/2000/svg">
<path d="M56.3474 10.314H49.697V28.6538H46.0202V10.314H39.4284V7.32568H56.3474V10.314ZM64.4772 28.9468C62.2214 28.9468 60.3903 28.2388 58.9841 26.8228C57.5876 25.397 56.8893 23.5024 56.8893 21.1392V20.6997C56.8893 19.1177 57.1921 17.7065 57.7975 16.4663C58.4128 15.2163 59.2722 14.2446 60.3757 13.5513C61.4792 12.8579 62.7097 12.5112 64.0671 12.5112C66.2253 12.5112 67.8903 13.1997 69.0622 14.5767C70.2438 15.9536 70.8347 17.9019 70.8347 20.4214V21.8569H60.4782C60.5856 23.1655 61.0202 24.2007 61.7819 24.9624C62.5534 25.7241 63.5202 26.105 64.6823 26.105C66.3132 26.105 67.6413 25.4458 68.6667 24.1274L70.5856 25.9585C69.9509 26.9058 69.1013 27.6431 68.0368 28.1704C66.9821 28.688 65.7956 28.9468 64.4772 28.9468ZM64.0524 15.3677C63.0759 15.3677 62.2849 15.7095 61.6794 16.3931C61.0837 17.0767 60.7028 18.0288 60.5368 19.2495H67.319V18.9858C67.2409 17.7944 66.9235 16.896 66.3669 16.2905C65.8102 15.6753 65.0388 15.3677 64.0524 15.3677ZM80.1218 26.105C81.0104 26.105 81.7477 25.8462 82.3337 25.3286C82.9196 24.811 83.2321 24.1714 83.2712 23.4097H86.6257C86.5866 24.396 86.279 25.3188 85.7028 26.1782C85.1266 27.0278 84.3454 27.7017 83.3591 28.1997C82.3727 28.6978 81.3083 28.9468 80.1657 28.9468C77.9489 28.9468 76.1911 28.229 74.8923 26.7935C73.5934 25.3579 72.944 23.3755 72.944 20.8462V20.48C72.944 18.0679 73.5886 16.1392 74.8776 14.6938C76.1667 13.2388 77.9245 12.5112 80.1511 12.5112C82.0358 12.5112 83.569 13.063 84.7507 14.1665C85.9421 15.2603 86.5671 16.7007 86.6257 18.4878H83.2712C83.2321 17.5796 82.9196 16.8325 82.3337 16.2466C81.7575 15.6606 81.0202 15.3677 80.1218 15.3677C78.9694 15.3677 78.0807 15.7876 77.4557 16.6274C76.8307 17.4575 76.5134 18.7222 76.5036 20.4214V20.9927C76.5036 22.7114 76.8112 23.9956 77.4265 24.8452C78.0515 25.6851 78.9499 26.105 80.1218 26.105ZM92.822 14.5327C93.9841 13.1851 95.4538 12.5112 97.2311 12.5112C100.61 12.5112 102.324 14.4399 102.373 18.2974V28.6538H98.8132V18.4292C98.8132 17.3354 98.5739 16.564 98.0954 16.1147C97.6266 15.6558 96.9333 15.4263 96.0153 15.4263C94.5895 15.4263 93.5251 16.061 92.822 17.3306V28.6538H89.2624V6.15381H92.822V14.5327ZM128.33 10.314H121.679V28.6538H118.003V10.314H111.411V7.32568H128.33V10.314ZM138.13 16.0562C137.661 15.978 137.177 15.939 136.679 15.939C135.049 15.939 133.95 16.564 133.383 17.814V28.6538H129.824V12.8042H133.222L133.31 14.5767C134.17 13.1997 135.361 12.5112 136.884 12.5112C137.392 12.5112 137.812 12.5796 138.144 12.7163L138.13 16.0562ZM149.409 28.6538C149.253 28.3511 149.116 27.8579 148.999 27.1743C147.866 28.356 146.479 28.9468 144.839 28.9468C143.247 28.9468 141.948 28.4927 140.942 27.5845C139.936 26.6763 139.433 25.5532 139.433 24.2153C139.433 22.5259 140.058 21.2319 141.308 20.3335C142.568 19.4253 144.365 18.9712 146.699 18.9712H148.882V17.9312C148.882 17.1108 148.652 16.4565 148.193 15.9683C147.734 15.4702 147.036 15.2212 146.098 15.2212C145.288 15.2212 144.624 15.4263 144.106 15.8364C143.589 16.2368 143.33 16.7495 143.33 17.3745H139.77C139.77 16.5054 140.058 15.6948 140.634 14.9429C141.211 14.1812 141.992 13.5854 142.978 13.1558C143.974 12.7261 145.083 12.5112 146.303 12.5112C148.159 12.5112 149.638 12.98 150.742 13.9175C151.845 14.8452 152.412 16.1538 152.441 17.8433V24.9917C152.441 26.4175 152.641 27.5552 153.042 28.4048V28.6538H149.409ZM145.498 26.0903C146.201 26.0903 146.86 25.9194 147.475 25.5776C148.1 25.2358 148.569 24.7769 148.882 24.2007V21.2124H146.963C145.644 21.2124 144.653 21.4419 143.989 21.9009C143.325 22.3599 142.993 23.0093 142.993 23.8491C142.993 24.5327 143.217 25.0796 143.667 25.4897C144.126 25.8901 144.736 26.0903 145.498 26.0903ZM162.68 26.105C163.569 26.105 164.306 25.8462 164.892 25.3286C165.478 24.811 165.791 24.1714 165.83 23.4097H169.184C169.145 24.396 168.838 25.3188 168.261 26.1782C167.685 27.0278 166.904 27.7017 165.918 28.1997C164.931 28.6978 163.867 28.9468 162.724 28.9468C160.508 28.9468 158.75 28.229 157.451 26.7935C156.152 25.3579 155.503 23.3755 155.503 20.8462V20.48C155.503 18.0679 156.147 16.1392 157.436 14.6938C158.725 13.2388 160.483 12.5112 162.71 12.5112C164.594 12.5112 166.128 13.063 167.309 14.1665C168.501 15.2603 169.126 16.7007 169.184 18.4878H165.83C165.791 17.5796 165.478 16.8325 164.892 16.2466C164.316 15.6606 163.579 15.3677 162.68 15.3677C161.528 15.3677 160.639 15.7876 160.014 16.6274C159.389 17.4575 159.072 18.7222 159.062 20.4214V20.9927C159.062 22.7114 159.37 23.9956 159.985 24.8452C160.61 25.6851 161.508 26.105 162.68 26.105ZM177.021 21.8569L175.439 23.4829V28.6538H171.88V6.15381H175.439V19.1323L176.552 17.7407L180.932 12.8042H185.21L179.321 19.4106L185.84 28.6538H181.723L177.021 21.8569ZM194.233 28.9468C191.977 28.9468 190.146 28.2388 188.74 26.8228C187.343 25.397 186.645 23.5024 186.645 21.1392V20.6997C186.645 19.1177 186.948 17.7065 187.553 16.4663C188.169 15.2163 189.028 14.2446 190.132 13.5513C191.235 12.8579 192.466 12.5112 193.823 12.5112C195.981 12.5112 197.646 13.1997 198.818 14.5767C200 15.9536 200.591 17.9019 200.591 20.4214V21.8569H190.234C190.341 23.1655 190.776 24.2007 191.538 24.9624C192.309 25.7241 193.276 26.105 194.438 26.105C196.069 26.105 197.397 25.4458 198.423 24.1274L200.341 25.9585C199.707 26.9058 198.857 27.6431 197.793 28.1704C196.738 28.688 195.551 28.9468 194.233 28.9468ZM193.808 15.3677C192.832 15.3677 192.041 15.7095 191.435 16.3931C190.84 17.0767 190.459 18.0288 190.293 19.2495H197.075V18.9858C196.997 17.7944 196.679 16.896 196.123 16.2905C195.566 15.6753 194.795 15.3677 193.808 15.3677ZM211.665 16.0562C211.196 15.978 210.713 15.939 210.215 15.939C208.584 15.939 207.485 16.564 206.919 17.814V28.6538H203.359V12.8042H206.758L206.845 14.5767C207.705 13.1997 208.896 12.5112 210.42 12.5112C210.927 12.5112 211.347 12.5796 211.679 12.7163L211.665 16.0562Z" fill="white"/>
<g clip-path="url(#clip0)">
<path d="M13.9177 2.88599C7.46692 2.88599 2.23753 8.11537 2.23753 14.5662C2.23753 21.017 7.46692 26.2464 13.9177 26.2464C20.3685 26.2464 25.5979 21.017 25.5979 14.5662C25.5909 8.11829 20.3656 2.89301 13.9177 2.88599ZM13.9177 3.99839C17.3534 4.0011 20.5729 5.67553 22.5477 8.48691L21.1572 9.87741C20.8188 9.67266 20.4314 9.56309 20.0359 9.56038C18.8072 9.56038 17.8111 10.5565 17.8111 11.7852C17.8131 12.1811 17.922 12.5691 18.1265 12.9081L14.4845 16.5501C13.7949 16.1296 12.9282 16.1296 12.2386 16.5501L9.70896 14.0205C9.91343 13.6815 10.0224 13.2935 10.0243 12.8976C10.0259 11.6713 9.03304 10.676 7.80676 10.6744C6.7926 10.6732 5.9065 11.3592 5.65371 12.3414H3.59021C4.6433 7.47832 8.94196 4.00569 13.9177 3.99839ZM21.1483 11.7852C21.1483 12.3996 20.6503 12.8976 20.0359 12.8976C19.4215 12.8976 18.9235 12.3996 18.9235 11.7852C18.9235 11.1708 19.4215 10.6728 20.0359 10.6728C20.6503 10.6728 21.1483 11.1708 21.1483 11.7852ZM14.4739 18.4596C14.4739 19.074 13.9759 19.572 13.3615 19.572C12.7471 19.572 12.2491 19.074 12.2491 18.4596C12.2491 17.8452 12.7471 17.3472 13.3615 17.3472C13.9759 17.3472 14.4739 17.8452 14.4739 18.4596ZM8.91193 12.8976C8.91193 13.512 8.41392 14.01 7.79953 14.01C7.18514 14.01 6.68713 13.512 6.68713 12.8976C6.68713 12.2832 7.18514 11.7852 7.79953 11.7852C8.41392 11.7852 8.91193 12.2832 8.91193 12.8976ZM19.0524 23.8065C17.4817 24.6786 15.7144 25.1355 13.9177 25.1339C8.08527 25.1379 3.3539 20.413 3.34993 14.5806C3.34965 14.2042 3.36954 13.828 3.40945 13.4537H5.65371C5.90657 14.433 6.78815 15.1185 7.79953 15.1223C8.19547 15.1204 8.58349 15.0114 8.92249 14.8069L11.4521 17.3365C11.2476 17.6755 11.1387 18.0636 11.1367 18.4595C11.1367 19.6882 12.1328 20.6843 13.3615 20.6843C14.5902 20.6843 15.5863 19.6882 15.5863 18.4595C15.5844 18.0636 15.4754 17.6755 15.271 17.3365L18.9129 13.6945C19.2519 13.899 19.64 14.008 20.0359 14.0099C21.2646 14.0099 22.2607 13.0138 22.2607 11.7851C22.2588 11.3892 22.1498 11.0011 21.9453 10.6621L23.1579 9.45018C25.9886 14.5483 24.1505 20.9758 19.0524 23.8065Z" fill="white"/>
<path d="M27.8227 6.22345C28.8341 6.21962 29.7156 5.53418 29.9685 4.55485H33.3847V3.44245H29.9685C29.7156 2.46312 28.8341 1.77768 27.8227 1.77385C26.594 1.77385 25.5979 2.76994 25.5979 3.99865C25.5998 4.39459 25.7088 4.78261 25.9133 5.12162L24.936 6.09886C20.2601 0.00701624 11.5311 -1.14084 5.43928 3.53506C-0.65256 8.21096 -1.80042 16.94 2.87548 23.0319C7.2892 28.7821 15.3799 30.1769 21.4642 26.2366L23.1428 27.9152L23.9293 28.7017L28.4067 33.1791C29.5454 34.3178 31.3916 34.3178 32.5304 33.1791C33.6691 32.0403 33.6691 30.1942 32.5304 29.0554L28.053 24.578L27.2665 23.7916L25.5879 22.113C28.5676 17.5232 28.5676 11.6098 25.5879 7.01993L26.7003 5.90753C27.0391 6.11207 27.427 6.22122 27.8227 6.22345ZM27.8227 2.88625C28.4371 2.88625 28.9351 3.38426 28.9351 3.99865C28.9351 4.61304 28.4371 5.11105 27.8227 5.11105C27.2083 5.11105 26.7103 4.61304 26.7103 3.99865C26.7103 3.38426 27.2084 2.88625 27.8227 2.88625ZM31.7439 29.8419C32.4562 30.5383 32.4692 31.6803 31.7729 32.3926C31.0765 33.105 29.9345 33.118 29.2222 32.4216C29.2124 32.4121 29.2028 32.4024 29.1932 32.3926L24.7158 27.9152L27.2665 25.3645L31.7439 29.8419ZM26.48 24.578L23.9293 27.1288L22.3897 25.5892C22.4682 25.5291 22.5416 25.4629 22.6189 25.4012C22.6962 25.3395 22.7857 25.2655 22.8686 25.196C22.9904 25.0936 23.1106 24.9902 23.2285 24.8839C23.2891 24.8283 23.347 24.7727 23.4065 24.7171C23.6345 24.5035 23.8553 24.2827 24.0689 24.0546C24.1245 23.9951 24.1801 23.9373 24.2358 23.8767C24.342 23.7587 24.4454 23.6386 24.5478 23.5168C24.6175 23.4345 24.6859 23.3513 24.753 23.2671C24.8142 23.1903 24.8804 23.1169 24.9405 23.0385L26.48 24.578ZM24.3231 21.9945C24.1479 22.2392 23.9671 22.4789 23.7763 22.7098C23.7207 22.7771 23.6612 22.8421 23.6039 22.9083C23.4337 23.1063 23.258 23.2984 23.0766 23.4845C22.9977 23.5661 22.9174 23.6464 22.8358 23.7254C22.6504 23.9067 22.4584 24.0825 22.2596 24.2527C22.1934 24.3083 22.1283 24.3689 22.061 24.4251C21.8302 24.6159 21.5905 24.7966 21.3457 24.9718C15.588 29.0853 7.58573 27.7523 3.47228 21.9945C-0.641158 16.2367 0.691843 8.23446 6.44962 4.12101C12.2074 0.00757241 20.2096 1.3405 24.3231 7.09835C27.506 11.5536 27.506 17.5392 24.3231 21.9945Z" fill="white"/>
</g>
<defs>
<clipPath id="clip0">
<rect width="33.3846" height="33.3846" fill="white" transform="translate(0 0.653809)"/>
</clipPath>
</defs>
</svg>
