<svg width="50" height="70" viewBox="0 0 50 70" fill="none" xmlns="http://www.w3.org/2000/svg">
<path d="M49.4856 62.3234H48.5176V26.4495C48.5176 26.1248 48.3623 25.8403 48.1387 25.7548L25.7127 17.1868C25.4889 17.1013 25.3337 16.8168 25.3337 16.4921V9.69805C25.3337 6.45724 19.9944 3.83008 13.4081 3.83008C6.82181 3.83008 1.48246 6.45731 1.48246 9.69805V62.3234H0.514403C0.230298 62.3234 0 62.6459 0 63.0436V65.4493C0 65.8471 0.230298 66.1695 0.514403 66.1695H49.4856C49.7697 66.1695 50 65.8471 50 65.4493V63.0435C50 62.6459 49.7697 62.3234 49.4856 62.3234ZM5.56106 54.0084C5.56106 54.3316 5.407 54.6137 5.18493 54.7019C4.46836 54.9868 3.81404 55.3081 3.23369 55.6601C2.89285 55.8668 2.51224 55.521 2.51224 55.001V51.8292C2.51224 51.5514 2.62685 51.2999 2.8055 51.1788C3.41204 50.7678 4.11492 50.3936 4.89774 50.0639C5.22798 49.9248 5.56106 50.2708 5.56106 50.7536V54.0084ZM5.56106 46.3114C5.56106 46.6345 5.407 46.9167 5.18493 47.005C4.46836 47.2899 3.81404 47.6111 3.23369 47.9631C2.89285 48.1698 2.51224 47.824 2.51224 47.304V44.1323C2.51224 43.8545 2.62685 43.603 2.8055 43.4819C3.41204 43.0709 4.11492 42.6967 4.89774 42.367C5.22798 42.2279 5.56106 42.5739 5.56106 43.0567V46.3114ZM5.56106 38.6144C5.56106 38.9375 5.40694 39.2197 5.18493 39.3079C4.46836 39.5928 3.81404 39.9141 3.23369 40.2661C2.89285 40.4727 2.51224 40.127 2.51224 39.607V36.4352C2.51224 36.1574 2.62685 35.9059 2.8055 35.7849C3.41204 35.3739 4.11492 34.9996 4.89774 34.67C5.22798 34.5308 5.56106 34.8767 5.56106 35.3596V38.6144ZM5.56106 30.9173C5.56106 31.2405 5.40694 31.5226 5.18493 31.6109C4.46836 31.8958 3.81404 32.2171 3.23369 32.569C2.89285 32.7757 2.51224 32.43 2.51224 31.91V28.7382C2.51224 28.4604 2.62685 28.2088 2.8055 28.0878C3.41204 27.6768 4.11492 27.3026 4.89774 26.9729C5.22798 26.8338 5.56106 27.1798 5.56106 27.6626V30.9173ZM5.56106 23.2204C5.56106 23.5436 5.407 23.8257 5.18493 23.914C4.46836 24.1989 3.81404 24.5201 3.23369 24.8721C2.89285 25.0788 2.51224 24.7331 2.51224 24.213V21.0413C2.51224 20.7635 2.62685 20.512 2.8055 20.3909C3.41204 19.9799 4.11492 19.6056 4.89774 19.276C5.22798 19.1369 5.56106 19.4829 5.56106 19.9657V23.2204ZM5.56106 15.5234C5.56106 15.8465 5.40694 16.1287 5.18493 16.2169C4.46836 16.5018 3.81404 16.8231 3.23369 17.175C2.89285 17.3817 2.51224 17.036 2.51224 16.5159V13.3441C2.51224 13.0663 2.62685 12.8148 2.8055 12.6937C3.41204 12.2827 4.11492 11.9085 4.89774 11.5788C5.22798 11.4397 5.56106 11.7857 5.56106 12.2685V15.5234ZM12.7583 52.5784C12.7583 52.9676 12.537 53.2858 12.2591 53.2977C10.5457 53.3711 8.9269 53.6066 7.46646 53.9731C7.15067 54.0524 6.8606 53.7138 6.8606 53.2646V49.9731C6.8606 49.6272 7.03601 49.329 7.27891 49.2656C8.77917 48.8739 10.4527 48.6214 12.2282 48.5434C12.5183 48.5307 12.7583 48.8575 12.7583 49.2637L12.7583 52.5784ZM12.7583 44.8814C12.7583 45.2707 12.537 45.5888 12.2591 45.6007C10.5457 45.6741 8.9269 45.9096 7.46646 46.2762C7.15067 46.3555 6.8606 46.0169 6.8606 45.5677V42.2761C6.8606 41.9302 7.03601 41.632 7.27891 41.5686C8.77917 41.1768 10.4527 40.9245 12.2282 40.8465C12.5183 40.8337 12.7583 41.1605 12.7583 41.5667L12.7583 44.8814ZM12.7583 37.1843C12.7583 37.5736 12.537 37.8918 12.2591 37.9037C10.5457 37.977 8.9269 38.2125 7.46646 38.579C7.15067 38.6584 6.8606 38.3198 6.8606 37.8706V34.579C6.8606 34.2331 7.03601 33.9349 7.27891 33.8714C8.77917 33.4798 10.4527 33.2274 12.2282 33.1494C12.5183 33.1366 12.7583 33.4633 12.7583 33.8696L12.7583 37.1843ZM12.7583 29.4873C12.7583 29.8766 12.537 30.1948 12.2591 30.2067C10.5457 30.2801 8.9269 30.5156 7.46646 30.8821C7.15067 30.9614 6.8606 30.6228 6.8606 30.1736V26.882C6.8606 26.5361 7.03601 26.2379 7.27891 26.1744C8.77917 25.7828 10.4527 25.5303 12.2282 25.4523C12.5182 25.4396 12.7583 25.7664 12.7583 26.1725L12.7583 29.4873ZM12.7583 21.7903C12.7583 22.1797 12.537 22.4978 12.2591 22.5097C10.5457 22.583 8.9269 22.8186 7.46646 23.1851C7.15067 23.2643 6.8606 22.9258 6.8606 22.4767V19.1851C6.8606 18.8392 7.03601 18.541 7.27891 18.4775C8.77917 18.0857 10.4527 17.8334 12.2282 17.7554C12.5183 17.7427 12.7583 18.0695 12.7583 18.4756L12.7583 21.7903ZM12.7583 14.0933C12.7583 14.4826 12.537 14.8008 12.2591 14.8127C10.5457 14.8859 8.9269 15.1215 7.46646 15.488C7.15067 15.5673 6.8606 15.2288 6.8606 14.7796V11.4881C6.8606 11.1422 7.03601 10.8439 7.27891 10.7805C8.77917 10.3888 10.4527 10.1364 12.2282 10.0584C12.5183 10.0456 12.7583 10.3724 12.7583 10.7786L12.7583 14.0933ZM21.255 12.2685C21.255 11.7857 21.588 11.4397 21.9183 11.5788C22.7011 11.9085 23.404 12.2828 24.0105 12.6938C24.1892 12.8149 24.3038 13.0663 24.3038 13.3442V16.5159C24.3038 17.036 23.9233 17.3817 23.5824 17.175C23.0021 16.823 22.3477 16.5017 21.6311 16.2169C21.4092 16.1286 21.255 15.8465 21.255 15.5234V12.2685ZM19.9555 53.2647C19.9555 53.7139 19.6654 54.0524 19.3497 53.9731C17.8892 53.6066 16.2704 53.3711 14.5571 53.2978C14.2792 53.2859 14.0579 52.9677 14.0579 52.5785V49.2638C14.0579 48.8576 14.2979 48.5308 14.588 48.5436C16.3636 48.6216 18.037 48.8739 19.5373 49.2657C19.7802 49.3291 19.9556 49.6273 19.9556 49.9733L19.9555 53.2647ZM19.9555 45.5677C19.9555 46.0169 19.6654 46.3554 19.3497 46.2762C17.8891 45.9096 16.2704 45.6741 14.5571 45.6007C14.2792 45.5888 14.0579 45.2707 14.0579 44.8813V41.5668C14.0579 41.1605 14.2979 40.8338 14.588 40.8465C16.3636 40.9245 18.037 41.1769 19.5373 41.5686C19.7802 41.6321 19.9556 41.9303 19.9556 42.2762L19.9555 45.5677ZM19.9555 37.8707C19.9555 38.3198 19.6654 38.6584 19.3497 38.5791C17.8891 38.2125 16.2704 37.977 14.5571 37.9037C14.2792 37.8919 14.0579 37.5737 14.0579 37.1844V33.8698C14.0579 33.4635 14.2979 33.1368 14.588 33.1496C16.3636 33.2276 18.037 33.4799 19.5373 33.8717C19.7802 33.9351 19.9556 34.2333 19.9556 34.5792L19.9555 37.8707ZM19.9555 30.1736C19.9555 30.6228 19.6654 30.9613 19.3497 30.8821C17.8892 30.5155 16.2704 30.28 14.5571 30.2067C14.2792 30.1948 14.0579 29.8766 14.0579 29.4873V26.1728C14.0579 25.7665 14.2979 25.4398 14.588 25.4525C16.3636 25.5305 18.037 25.7829 19.5373 26.1746C19.7802 26.2381 19.9556 26.5362 19.9556 26.8822L19.9555 30.1736ZM19.9555 22.4767C19.9555 22.9258 19.6654 23.2643 19.3497 23.1851C17.8892 22.8185 16.2704 22.583 14.5571 22.5097C14.2792 22.4978 14.0579 22.1797 14.0579 21.7903V18.4757C14.0579 18.0695 14.2979 17.7427 14.588 17.7555C16.3636 17.8335 18.037 18.0858 19.5373 18.4776C19.7802 18.541 19.9556 18.8392 19.9556 19.1852L19.9555 22.4767ZM19.9555 14.7797C19.9555 15.2288 19.6654 15.5674 19.3497 15.4881C17.8892 15.1215 16.2704 14.886 14.5571 14.8127C14.2792 14.8009 14.0579 14.4827 14.0579 14.0934V10.7787C14.0579 10.3725 14.2979 10.0457 14.588 10.0585C16.3636 10.1365 18.037 10.3888 19.5373 10.7806C19.7802 10.8441 19.9556 11.1423 19.9556 11.4882L19.9555 14.7797ZM21.255 23.2204V19.9657C21.255 19.4828 21.588 19.1368 21.9183 19.276C22.7011 19.6056 23.404 19.9799 24.0105 20.3909C24.1892 20.512 24.3038 20.7634 24.3038 21.0413V24.213C24.3038 24.7331 23.9233 25.0788 23.5824 24.8721C23.0021 24.5201 22.3477 24.1989 21.6311 23.914C21.4091 23.8257 21.255 23.5434 21.255 23.2204ZM37.9188 62.3234H29.997V55.6769C29.997 55.2792 30.2273 54.9567 30.5114 54.9567H37.4044C37.6885 54.9567 37.9188 55.2792 37.9188 55.6769V62.3234ZM46.0486 49.686C46.0486 50.0837 45.8183 50.4062 45.5342 50.4062H23.4932C23.2091 50.4062 22.9788 50.0837 22.9788 49.686V46.9077C22.9788 46.51 23.2091 46.1876 23.4932 46.1876H45.5342C45.8183 46.1876 46.0486 46.51 46.0486 46.9077V49.686ZM46.0486 42.5567C46.0486 42.9544 45.8183 43.2769 45.5342 43.2769H23.4932C23.2091 43.2769 22.9788 42.9544 22.9788 42.5567V39.7784C22.9788 39.3806 23.2091 39.0582 23.4932 39.0582H45.5342C45.8183 39.0582 46.0486 39.3806 46.0486 39.7784V42.5567ZM46.0486 35.4274C46.0486 35.8252 45.8183 36.1476 45.5342 36.1476H23.4932C23.2091 36.1476 22.9788 35.8252 22.9788 35.4274V32.6491C22.9788 32.2514 23.2091 31.929 23.4932 31.929H45.5342C45.8183 31.929 46.0486 32.2514 46.0486 32.6491V35.4274Z" fill="#C4C4C4"/>
</svg>