<svg width="89" height="89" viewBox="0 0 89 89" fill="none" xmlns="http://www.w3.org/2000/svg">
<path d="M56.8842 0H9.11719V89H79.8818V22.9976L56.8842 0ZM68.0296 20.9666H58.918V11.8545L68.0296 20.9666ZM16.0599 82.0573V6.94275H51.9752V24.438C51.9752 26.3551 53.529 27.9094 55.4466 27.9094H72.9391V82.0573H16.0599Z" fill="#919497"/>
<path d="M64.4055 68.9668H24.5977V73.5953H64.4055V68.9668Z" fill="#919497"/>
<path d="M48.2298 25.5034H24.5977V30.1319H48.2298V25.5034Z" fill="#919497"/>
<path d="M56.1188 40.2376H58.6839L48.7701 50.1509L41.0183 42.3991L23.8809 59.538L27.1532 62.8113L41.0183 48.9452L48.7701 56.6966L61.9567 43.51V46.0695H66.5852V35.6091H56.1188V40.2376Z" fill="#919497"/>
<path d="M48.2298 15.405H24.5977V20.0335H48.2298V15.405Z" fill="#919497"/>
</svg>
