<svg width="32" height="32" viewBox="0 0 32 32" fill="none" xmlns="http://www.w3.org/2000/svg">
<path d="M31.3402 14.6184H28.86C28.2194 8.60833 23.3917 3.78062 17.3816 3.13963V0.659794C17.3816 0.295588 17.086 0 16.7218 0H15.2782C14.914 0 14.6184 0.295588 14.6184 0.659794V3.13963C8.60833 3.78062 3.78062 8.60833 3.13963 14.6184H0.659794C0.295588 14.6184 0 14.914 0 15.2782V16.7221C0 17.0863 0.295588 17.3819 0.659794 17.3819H3.13963C3.78062 23.3917 8.60833 28.2194 14.6184 28.86V31.3402C14.6184 31.7044 14.914 32 15.2782 32H16.7221C17.0863 32 17.3819 31.7044 17.3819 31.3402V28.86C23.3917 28.2194 28.2194 23.3917 28.86 17.3816H31.3402C31.7044 17.3816 32 17.086 32 16.7218V15.2782C32 14.9136 31.7044 14.6184 31.3402 14.6184ZM8.21311 17.3816C8.57732 17.3816 8.87291 17.086 8.87291 16.7218V15.2782C8.87291 14.914 8.57732 14.6184 8.21311 14.6184H6.07142C6.68371 10.1988 10.1984 6.68371 14.6181 6.07142V8.21311C14.6181 8.57732 14.9136 8.87291 15.2779 8.87291H16.7215C17.0857 8.87291 17.3813 8.57732 17.3813 8.21311V6.07142C21.8016 6.68371 25.3163 10.1984 25.9286 14.6184H23.7869C23.4227 14.6184 23.1271 14.914 23.1271 15.2782V16.7221C23.1271 17.0863 23.4227 17.3819 23.7869 17.3819H25.9286C25.3163 21.8016 21.8016 25.3163 17.3819 25.9292V23.7875C17.3819 23.4233 17.0863 23.1278 16.7221 23.1278H15.2782C14.914 23.1278 14.6184 23.4233 14.6184 23.7875V25.9292C10.1984 25.3163 6.68371 21.8016 6.07142 17.3816H8.21311Z" fill="#3898DE"/>
</svg>
